<?xml version="1.0" encoding="UTF-8" standalone="no"?>
<svg
   width="34.999996"
   height="74.002991"
   viewBox="0 0 34.999996 74.002991"
   fill="none"
   version="1.1"
   id="svg117"
   sodipodi:docname="zana.svg"
   inkscape:version="1.2.1 (9c6d41e410, 2022-07-14)"
   xmlns:inkscape="http://www.inkscape.org/namespaces/inkscape"
   xmlns:sodipodi="http://sodipodi.sourceforge.net/DTD/sodipodi-0.dtd"
   xmlns="http://www.w3.org/2000/svg"
   xmlns:svg="http://www.w3.org/2000/svg">
  <defs
     id="defs121" />
  <sodipodi:namedview
     id="namedview119"
     pagecolor="#ffffff"
     bordercolor="#666666"
     borderopacity="1.0"
     inkscape:showpageshadow="2"
     inkscape:pageopacity="0.0"
     inkscape:pagecheckerboard="0"
     inkscape:deskcolor="#d1d1d1"
     showgrid="false"
     inkscape:zoom="6.7334942"
     inkscape:cx="28.588426"
     inkscape:cy="47.003827"
     inkscape:window-width="3840"
     inkscape:window-height="2093"
     inkscape:window-x="1341"
     inkscape:window-y="-9"
     inkscape:window-maximized="1"
     inkscape:current-layer="svg117" />
  <path
     d="m 20.007561,16.755899 c 0.3189,-0.3268 0.5259,-0.5415 0.7352,-0.7524 2.5492,-2.5695 5.3682,-4.8889 8.6842,-6.7389 1.206,-0.6731 2.457,-1.2817 3.914,-1.4829 1.105,-0.1524 1.664,0.2476 1.659,1.1853 -0.005,0.9244 -0.453,1.7342 -0.946,2.5183 -1.861,2.9572 -4.431,5.4328 -7.272,7.7181 -1.915,1.5402 -3.953,2.9475 -6.2887,4.0047 -1.1005,0.4976 -2.2593,1.0025 -3.5375,0.7012 -0.9751,-0.2304 -1.9368,-0.5853 -2.812,-1.0207 -3.4474,-1.7158 -6.3311996,-4.0035 -8.8911996,-6.5949 -1.8856,-1.9097 -3.6361,-3.9072 -4.73170003,-6.2462 -0.3141,-0.6695 -0.4346,-1.4219 -0.5149,-2.1475 -0.067,-0.5975 0.4382,-1.02924 1.14060003,-0.95607 0.7462,0.07807 1.518,0.24147 2.1923,0.52067 2.4627,1.0171 4.5053,2.5354 6.4214,4.1695 1.1697996,0.9987 2.2409996,2.0816 3.3499996,3.1316 0.1156,0.1097 0.1899,0.25 0.2824,0.3768 0.0621,-0.0329 0.123,-0.0646 0.185,-0.0976 -0.0353,-0.4878 -0.1071,-0.9768 -0.101,-1.4633 0.0256,-2.2012 0.0146,-4.4036 0.1327,-6.60108 0.0901,-1.68167 0.4857,-3.33772 1.2112,-4.91329 0.2557,-0.55487 0.6062,-1.10118999 1.0347,-1.57068999 0.5941,-0.65242 1.4085,-0.66706 2.0013,-0.01342 0.4735,0.52193999 0.857,1.13167999 1.1333,1.74995999 0.8156,1.81946 1.1686,3.73161 1.294,5.66572 0.1083,1.6792 0.1485,3.3645 0.1096,5.0462 -0.0256,1.1561 -0.2362,2.3097 -0.364,3.4633 -0.0061,0.0598 -0.0073,0.1207 -0.0207,0.3476 z"
     fill="#518f40"
     id="path91" />
  <path
     d="m 27.086961,37.193499 c 0.093,4.7339 0.441,3.815 -3.205,4.5611 -1.552,0.3173 -3.1303,0.5048 -4.6885,0.8 -0.5448,0.1029 -1.0638,0.3492 -1.595,0.5305 0.4908,0.2328 0.9619,0.5391 1.476,0.6873 2.1349,0.615 4.2725,1.2337 6.4325,1.7421 1.026,0.2414 1.328,0.7375 1.218,1.7642 -0.744,6.9574 -1.688,13.8855 -4.413,20.3713 -0.8278,1.9712 -2.1811,3.7538 -3.5038,5.453 -0.9238,1.1871 -2.2747,1.2153 -3.287,-0.0074 -1.0515,-1.2704 -2.1888,-2.569 -2.8404,-4.06 -1.1018,-2.525 -1.8244,-5.2202 -2.7593996,-7.8248 -0.5006,-1.3942 0.0589,-1.8316 1.3508996,-1.9749 1.6993,-0.1887 3.3876,-0.5011 5.071,-0.8196 0.5141,-0.0968 0.9938,-0.3884 1.4895,-0.5906 -0.4503,-0.2058 -0.8834,-0.4741 -1.3533,-0.6088 -2.1349,-0.6126 -4.3128,-1.0941 -6.4023,-1.834 -0.6563996,-0.2328 -1.5017996,-1.0879 -1.5569996,-1.7213 -0.4981,-5.7226 -0.9459,-11.4561 -1.1582,-17.1958 -0.0626,-1.6784 0.5288,-3.4414 1.092,-5.0683 0.719,-2.0815 2.3201996,-3.5063 4.4243996,-3.8788 2.1643,-0.3834 4.4281,-0.604 6.6047,-0.403 4.4669,0.4116 6.8919,3.1216 7.4609,7.8579 0.108,0.898 0.118,1.807 0.143,2.2211 z"
     fill="#f05822"
     id="path93" />
  <path
     d="m 11.961761,14.908599 c -0.0589,-0.0074 -0.1177,-0.0159 -0.1766,-0.0233 0.0674,0.0343 0.1349,0.0686 0.2024,0.1029 l -0.0245,-0.0796 z"
     fill="#f05822"
     id="path95" />
  <path
     d="m 11.987561,14.988199 c -0.0344,-0.0208 -0.0687,-0.0416 -0.1019,-0.0625 0.0221,-0.0073 0.0454,-0.0147 0.0724,-0.0196 0.0049,0.0025 0.0295,0.0821 0.0295,0.0821 z"
     fill="#f05822"
     id="path97" />
  <path
     d="m 12.546461,16.045999 -0.0633,-0.0422 c 0,0 0.0186,0.0782 0.0211,0.0782 0.0025,0 0.0422,-0.036 0.0422,-0.036 z"
     fill="#f05822"
     id="path99" />
  <path
     d="m 13.056261,16.446099 c -0.1681,-0.1335 -0.3374,-0.2671 -0.508,-0.4006 -0.0024,0 -0.0417,0.0355 -0.0441,0.0367 0.1963,0.1422 0.395,0.283 0.5926,0.4252 z"
     fill="#f05822"
     id="path101" />
  <path
     d="m 13.096861,16.507299 c -0.0295,-0.0073 -0.0577,-0.0147 -0.0871,-0.0232 l 0.0601,0.0478 c -0.0074,-0.0307 -0.0147,-0.0625 -0.0184,-0.0907 0.0049,0.0037 0.0454,0.0649 0.0454,0.0649 z"
     fill="#f05822"
     id="path103" />
  <path
     d="m 18.497761,20.746299 c 0.0515,0 0.1031,0 0.1534,0 l -0.1301,-0.0833 z"
     fill="#f05822"
     id="path105" />
  <path
     d="m 18.521061,20.664199 c 0.0197,0.0404 0.0381,0.0796 0.0577,0.1201 -0.0257,-0.0147 -0.0515,-0.0294 -0.0785,-0.0405 -0.0012,0.0037 0.0221,-0.0796 0.0221,-0.0796 z"
     fill="#f05822"
     id="path107" />
</svg>
