<svg width="177" height="88" viewBox="0 0 177 88" fill="none" xmlns="http://www.w3.org/2000/svg">
<path d="M98.0076 19.7559C98.3265 19.4291 98.5335 19.2144 98.7428 19.0035C101.292 16.434 104.111 14.1146 107.427 12.2646C108.633 11.5915 109.884 10.9829 111.341 10.7817C112.446 10.6293 113.005 11.0293 113 11.967C112.995 12.8914 112.547 13.7012 112.054 14.4853C110.193 17.4425 107.623 19.9181 104.782 22.2034C102.867 23.7436 100.829 25.1509 98.4933 26.2081C97.3928 26.7057 96.234 27.2106 94.9558 26.9093C93.9807 26.6789 93.019 26.324 92.1438 25.8886C88.6964 24.1728 85.8126 21.8851 83.2526 19.2937C81.367 17.384 79.6165 15.3865 78.5209 13.0475C78.2068 12.378 78.0863 11.6256 78.006 10.9C77.939 10.3025 78.4442 9.87076 79.1466 9.94393C79.8928 10.022 80.6646 10.1854 81.3389 10.4646C83.8016 11.4817 85.8442 13 87.7603 14.6341C88.9301 15.6328 90.0013 16.7157 91.1103 17.7657C91.2259 17.8754 91.3002 18.0157 91.3927 18.1425C91.4548 18.1096 91.5157 18.0779 91.5777 18.0449C91.5424 17.5571 91.4706 17.0681 91.4767 16.5816C91.5023 14.3804 91.4913 12.178 91.6094 9.98052C91.6995 8.29885 92.0951 6.6428 92.8206 5.06723C93.0763 4.51236 93.4268 3.96604 93.8553 3.49654C94.4494 2.84412 95.2638 2.82948 95.8566 3.48312C96.3301 4.00506 96.7136 4.6148 96.9899 5.23308C97.8055 7.05254 98.1585 8.96469 98.2839 10.8988C98.3922 12.578 98.4324 14.2633 98.3935 15.945C98.3679 17.1011 98.1573 18.2547 98.0295 19.4083C98.0234 19.4681 98.0222 19.529 98.0088 19.7559H98.0076Z" fill="#518F40"/>
<path d="M105.087 40.1935C105.18 44.9274 105.528 44.0085 101.882 44.7546C100.33 45.0719 98.7517 45.2594 97.1935 45.5546C96.6487 45.6575 96.1297 45.9038 95.5985 46.0851C96.0893 46.3179 96.5604 46.6242 97.0745 46.7724C99.2094 47.3874 101.347 48.0061 103.507 48.5145C104.533 48.7559 104.835 49.252 104.725 50.2787C103.981 57.2361 103.037 64.1642 100.312 70.65C99.4842 72.6212 98.1309 74.4038 96.8082 76.103C95.8844 77.2901 94.5335 77.3183 93.5212 76.0956C92.4697 74.8252 91.3324 73.5266 90.6808 72.0356C89.579 69.5106 88.8564 66.8154 87.9214 64.2108C87.4208 62.8166 87.9803 62.3792 89.2723 62.2359C90.9716 62.0472 92.6599 61.7348 94.3433 61.4163C94.8574 61.3195 95.3371 61.0279 95.8328 60.8257C95.3825 60.6199 94.9494 60.3516 94.4795 60.2169C92.3446 59.6043 90.1667 59.1228 88.0772 58.3829C87.4208 58.1501 86.5754 57.295 86.5202 56.6616C86.0221 50.939 85.5743 45.2055 85.362 39.4658C85.2994 37.7874 85.8908 36.0244 86.454 34.3975C87.173 32.316 88.7742 30.8912 90.8784 30.5187C93.0427 30.1353 95.3065 29.9147 97.4831 30.1157C101.95 30.5273 104.375 33.2373 104.944 37.9736C105.052 38.8716 105.062 39.7806 105.087 40.1947V40.1935Z" fill="#F05822"/>
<path d="M89.9618 17.9086C89.9029 17.9012 89.8441 17.8927 89.7852 17.8853C89.8526 17.9196 89.9201 17.9539 89.9876 17.9882L89.9631 17.9086H89.9618Z" fill="#F05822"/>
<path d="M89.9876 17.9882C89.9532 17.9674 89.9189 17.9466 89.8857 17.9257C89.9078 17.9184 89.9311 17.911 89.9581 17.9061C89.963 17.9086 89.9876 17.9882 89.9876 17.9882Z" fill="#F05822"/>
<path d="M90.5465 19.046L90.4832 19.0038C90.4832 19.0038 90.5018 19.082 90.5043 19.082C90.5068 19.082 90.5465 19.046 90.5465 19.046Z" fill="#F05822"/>
<path d="M91.0563 19.4461C90.8882 19.3126 90.7189 19.179 90.5483 19.0455C90.5459 19.0455 90.5066 19.081 90.5042 19.0822C90.7005 19.2244 90.8992 19.3652 91.0968 19.5074L91.0563 19.4461Z" fill="#F05822"/>
<path d="M91.0969 19.5073C91.0674 19.5 91.0392 19.4926 91.0098 19.4841L91.0699 19.5319C91.0625 19.5012 91.0552 19.4694 91.0515 19.4412C91.0564 19.4449 91.0969 19.5061 91.0969 19.5061V19.5073Z" fill="#F05822"/>
<path d="M96.4978 23.7463C96.5493 23.7463 96.6009 23.7463 96.6512 23.7463L96.5211 23.663L96.4978 23.7463Z" fill="#F05822"/>
<path d="M96.5211 23.6642C96.5408 23.7046 96.5592 23.7438 96.5788 23.7843C96.5531 23.7696 96.5273 23.7549 96.5003 23.7438C96.4991 23.7475 96.5224 23.6642 96.5224 23.6642H96.5211Z" fill="#F05822"/>
<path d="M10 51.0428C10.3591 49.7782 10.6963 48.5063 11.0809 47.2491C14.8464 34.9527 28.4891 27.9702 40.6323 32.2775C42.6789 33.0029 44.6283 34.3149 46.2854 35.7438C48.3089 37.4903 48.4763 40.3177 47.1298 42.248C45.8451 44.0895 43.3242 44.7479 40.8883 43.84C40.2636 43.6063 39.6339 43.3264 39.088 42.9491C33.2772 38.9265 25.7596 41.7027 22.6904 47.9185C19.5242 54.3302 21.7296 62.088 27.7503 65.4509C31.2841 67.425 34.8567 67.4652 38.4196 65.4496C39.3246 64.9372 40.2381 64.3944 41.2158 64.067C43.5863 63.2747 45.9761 64.0427 47.1941 65.8598C48.4399 67.7207 48.1743 70.4191 46.4371 72.2435C43.4346 75.397 39.5248 76.6592 35.3444 76.9391C22.8384 77.7752 12.7999 69.9347 10.4015 57.6334C10.3494 57.3632 10.1371 57.1234 10 56.8691C10 54.9266 10 52.9853 10 51.0428Z" fill="#003750"/>
<path d="M60.0888 63.3052C61.6248 67.5307 65.422 69.3565 70.0251 68.2821C71.5636 67.9232 73.0408 67.1084 74.5804 67.0003C75.7882 66.9146 77.5398 67.2202 78.1583 68.0375C78.8602 68.9628 78.8835 70.7216 78.6091 71.9872C78.3972 72.9598 77.4246 73.987 76.5194 74.5496C68.0592 79.8098 52.1344 76.7742 49.4262 63.7623C47.7346 55.6342 51.1545 47.8352 58.3323 44.0867C65.6657 40.2561 73.6912 41.7702 79.3159 48.0464C81.8134 50.8323 82.9501 54.171 82.9991 57.8587C83.0469 61.4706 81.2071 63.2977 77.5092 63.3375C72.443 63.3921 67.3757 63.3226 62.3083 63.3077C61.6334 63.3052 60.9573 63.3077 60.0888 63.3077V63.3052ZM72.4014 56.0751C71.8502 52.6693 69.4947 50.8833 66.1006 51.0981C62.5766 51.3217 60.4551 53.1202 60.3032 56.0751H72.4014Z" fill="#003750"/>
<path d="M119.213 63.3093C119.97 67.6478 124.859 69.1688 129.142 68.2401C130.609 67.9222 132.018 67.094 133.477 67.0331C134.756 66.9785 136.543 67.2827 137.231 68.142C137.931 69.0161 137.84 70.819 137.57 72.103C137.379 73.0094 136.454 73.9568 135.609 74.4932C127.717 79.5034 113.477 77.0523 109.347 66.6991C106.099 58.5574 108.875 49.3552 116.068 44.8144C123.496 40.1245 132.251 41.3749 138.242 47.9757C140.757 50.7459 141.906 54.0712 141.997 57.7565C142.086 61.3785 140.254 63.2907 136.615 63.3366C131.553 63.4 126.49 63.3255 121.426 63.3118C120.702 63.3093 119.977 63.3118 119.214 63.3118L119.213 63.3093ZM119.12 56.0306H131.372C130.956 52.9338 129.07 51.2923 125.836 51.1023C122.386 50.8999 119.987 52.5936 119.12 56.0306Z" fill="#003750"/>
<path d="M152.81 49.0712C154.848 46.1057 157.079 43.7569 160.639 43.1172C163.701 42.5669 166.367 43.9971 166.878 46.5064C167.469 49.4092 165.895 51.4948 162.573 52.1598C161.757 52.3228 160.923 52.4278 160.092 52.4869C155.564 52.8128 152.811 55.4802 152.689 59.8905C152.583 63.7383 152.661 67.5897 152.63 71.4387C152.613 73.6125 151.654 75.289 149.661 76.3282C147.89 77.2515 145.926 77.2986 144.543 75.9938C143.393 74.9088 142.208 73.2226 142.165 71.7706C141.931 64.0038 141.989 56.2261 142.079 48.4532C142.114 45.4008 144.104 43.3924 146.851 43.186C149.696 42.9712 151.805 44.5789 152.544 47.5396C152.646 47.9512 152.691 48.376 152.81 49.0712V49.0712Z" fill="#003750"/>
</svg>
