<svg width="153" height="73" viewBox="0 0 153 73" fill="none" xmlns="http://www.w3.org/2000/svg">
<g clip-path="url(#clip0_477_92)">
<path d="M85.8223 16.4905C86.1355 16.1682 86.3387 15.9566 86.5443 15.7485C89.0473 13.2146 91.8156 10.9272 95.0716 9.10276C96.2562 8.4389 97.4838 7.83879 98.9146 7.64035C99.9999 7.49002 100.549 7.88449 100.544 8.80931C100.539 9.72091 100.099 10.5195 99.615 11.2928C97.7874 14.2092 95.2641 16.6505 92.4742 18.9042C90.594 20.4232 88.593 21.811 86.2992 22.8537C85.2187 23.3444 84.0807 23.8423 82.8256 23.5452C81.8682 23.3179 80.9239 22.9679 80.0645 22.5386C76.6794 20.8465 73.8477 18.5904 71.3339 16.0347C69.4824 14.1514 67.7635 12.1815 66.6877 9.87485C66.3793 9.2146 66.261 8.47258 66.1821 7.75701C66.1164 7.16772 66.6124 6.74198 67.3021 6.81414C68.0348 6.89111 68.7927 7.05226 69.4549 7.32767C71.873 8.33066 73.8787 9.82795 75.7602 11.4395C76.9089 12.4244 77.9607 13.4924 79.0497 14.5278C79.1632 14.6361 79.2361 14.7744 79.327 14.8995C79.3879 14.867 79.4477 14.8357 79.5087 14.8033C79.474 14.3222 79.4035 13.8399 79.4094 13.3601C79.4346 11.1893 79.4238 9.01737 79.5397 6.85022C79.6282 5.19178 80.0167 3.55861 80.7291 2.0048C80.9801 1.4576 81.3243 0.918819 81.7451 0.455804C82.3284 -0.187606 83.1281 -0.202038 83.7102 0.442575C84.1752 0.957304 84.5517 1.55862 84.823 2.16836C85.6239 3.96269 85.9705 5.84842 86.0936 7.75581C86.2 9.41183 86.2395 11.0739 86.2012 12.7323C86.1761 13.8724 85.9693 15.0101 85.8438 16.1478C85.8378 16.2067 85.8366 16.2669 85.8235 16.4905H85.8223Z" fill="black"/>
<path d="M92.6344 36.8043C92.7252 41.4512 93.0647 40.5493 89.5122 41.2817C88.0001 41.5932 86.463 41.7772 84.9449 42.067C84.4142 42.168 83.9086 42.4097 83.391 42.5877C83.8691 42.8162 84.3281 43.1169 84.829 43.2624C86.9088 43.8661 88.991 44.4735 91.096 44.9726C92.0953 45.2095 92.3893 45.6966 92.2817 46.7044C91.5574 53.5341 90.6382 60.335 87.9834 66.7018C87.1766 68.6368 85.8581 70.3867 84.5696 72.0547C83.6695 73.2201 82.3535 73.2477 81.3673 72.0475C80.343 70.8004 79.2349 69.5256 78.6002 68.062C77.5268 65.5833 76.8228 62.9375 75.9119 60.3807C75.4243 59.0121 75.9693 58.5828 77.228 58.4421C78.8835 58.2569 80.5282 57.9502 82.1682 57.6375C82.669 57.5425 83.1364 57.2563 83.6193 57.0579C83.1806 56.8558 82.7587 56.5924 82.3009 56.4601C80.221 55.8588 78.0994 55.3862 76.0637 54.6598C75.4242 54.4313 74.6007 53.5919 74.5469 52.9701C74.0616 47.3526 73.6253 41.7242 73.4185 36.0899C73.3576 34.4423 73.9337 32.7117 74.4823 31.1146C75.1828 29.0713 76.7427 27.6726 78.7926 27.307C80.9012 26.9306 83.1065 26.7141 85.227 26.9114C89.5791 27.3155 91.9411 29.9757 92.4957 34.6251C92.6009 35.5066 92.6105 36.399 92.6344 36.8055V36.8043Z" fill="black"/>
<path d="M77.8997 14.9283C77.8423 14.9211 77.7849 14.9127 77.7275 14.9055C77.7933 14.9391 77.859 14.9728 77.9248 15.0065L77.9009 14.9283H77.8997Z" fill="black"/>
<path d="M77.9249 15.0065C77.8914 14.9861 77.858 14.9656 77.8257 14.9452C77.8472 14.9379 77.8699 14.9307 77.8962 14.9259C77.901 14.9283 77.9249 15.0065 77.9249 15.0065Z" fill="black"/>
<path d="M78.4687 16.0444L78.4077 16.0035C78.4077 16.0035 78.4256 16.0792 78.428 16.0792C78.4304 16.0792 78.4687 16.0444 78.4687 16.0444Z" fill="black"/>
<path d="M78.9659 16.4376C78.8021 16.3065 78.6372 16.1755 78.471 16.0444C78.4686 16.0444 78.4304 16.0792 78.428 16.0805C78.6192 16.22 78.8129 16.3583 79.0053 16.4978L78.9659 16.4376Z" fill="black"/>
<path d="M79.0055 16.4978C78.9768 16.4905 78.9493 16.4833 78.9207 16.4749L78.9792 16.5218C78.9721 16.4917 78.9649 16.4605 78.9613 16.4328C78.9661 16.4364 79.0055 16.4966 79.0055 16.4966V16.4978Z" fill="black"/>
<path d="M84.2671 20.6589C84.3173 20.6589 84.3675 20.6589 84.4165 20.6589L84.2898 20.5771L84.2671 20.6589Z" fill="black"/>
<path d="M84.2899 20.5783C84.309 20.618 84.327 20.6565 84.3461 20.6962C84.321 20.6817 84.2959 20.6673 84.2696 20.6565C84.2684 20.6601 84.2911 20.5783 84.2911 20.5783H84.2899Z" fill="black"/>
<path d="M0 47.3394C0.353812 46.0898 0.686109 44.8331 1.06502 43.5907C4.77527 31.4405 18.2178 24.541 30.1828 28.7971C32.1993 29.5139 34.1202 30.8103 35.753 32.2222C37.7468 33.948 37.9117 36.7417 36.5849 38.6491C35.3191 40.4687 32.8352 41.1193 30.435 40.2222C29.8195 39.9912 29.1991 39.7146 28.6612 39.3418C22.9357 35.3671 15.5283 38.1103 12.5042 44.2522C9.3844 50.5877 11.5575 58.2533 17.4898 61.5762C20.9718 63.5268 24.492 63.5665 28.0026 61.575C28.8943 61.0686 29.7944 60.5323 30.7578 60.2088C33.0934 59.4258 35.4482 60.1847 36.6483 61.9802C37.8759 63.8191 37.6141 66.4853 35.9024 68.2881C32.944 71.4041 29.0915 72.6512 24.9725 72.9278C12.65 73.7541 2.75878 66.0067 0.395648 53.8516C0.34425 53.5846 0.13507 53.3477 0 53.0964C0 51.177 0 49.2588 0 47.3394Z" fill="black"/>
<path d="M48.7078 59.6676C50.2067 63.7589 53.9122 65.5268 58.4042 64.4865C59.9055 64.139 61.3471 63.35 62.8496 63.2454C64.0281 63.1624 65.7374 63.4583 66.3411 64.2496C67.026 65.1456 67.0487 66.8485 66.7809 68.074C66.5742 69.0157 65.6251 70.0102 64.7417 70.555C56.4857 75.6482 40.9455 72.709 38.3026 60.1101C36.6519 52.2401 39.9892 44.6887 46.9937 41.0592C54.1501 37.3503 61.9818 38.8163 67.4706 44.8932C69.9079 47.5907 71.0171 50.8234 71.065 54.394C71.1116 57.8913 69.3162 59.6604 65.7076 59.6988C60.7637 59.7518 55.8187 59.6844 50.8737 59.67C50.2151 59.6676 49.5553 59.67 48.7078 59.67V59.6676ZM60.7231 52.667C60.1852 49.3694 57.8866 47.64 54.5744 47.8481C51.1355 48.0645 49.0652 49.806 48.917 52.667H60.7231Z" fill="black"/>
<path d="M105.988 59.6688C106.727 63.8708 111.502 65.344 115.685 64.4444C117.118 64.1366 118.494 63.3344 119.919 63.2755C121.168 63.2226 122.913 63.5172 123.585 64.3494C124.268 65.1961 124.18 66.9423 123.916 68.1858C123.729 69.0638 122.826 69.9814 122.001 70.5009C114.294 75.3535 100.386 72.9796 96.3531 62.952C93.1807 55.0663 95.8917 46.1536 102.917 41.7555C110.171 37.2132 118.721 38.4242 124.572 44.8174C127.028 47.5005 128.151 50.7212 128.239 54.2906C128.326 57.7987 126.537 59.6507 122.983 59.6952C118.04 59.7566 113.095 59.6844 108.15 59.6712C107.442 59.6688 106.734 59.6712 105.99 59.6712L105.988 59.6688ZM105.898 52.6189H117.863C117.456 49.6195 115.614 48.0297 112.456 47.8457C109.087 47.6496 106.744 49.29 105.898 52.6189Z" fill="black"/>
<path d="M139.177 45.171C141.156 42.2161 143.321 39.8758 146.777 39.2384C149.749 38.69 152.336 40.1151 152.833 42.6154C153.406 45.5077 151.879 47.5859 148.654 48.2486C147.862 48.4109 147.052 48.5155 146.246 48.5745C141.851 48.8992 139.178 51.557 139.06 55.9514C138.957 59.7854 139.033 63.6231 139.003 67.4583C138.986 69.6242 138.056 71.2947 136.121 72.3301C134.402 73.2502 132.495 73.2971 131.153 71.997C130.037 70.9158 128.887 69.2358 128.845 67.789C128.618 60.05 128.674 52.3002 128.761 44.5553C128.796 41.5138 130.728 39.5126 133.393 39.307C136.156 39.0929 138.202 40.6948 138.919 43.6449C139.018 44.055 139.063 44.4783 139.177 45.171Z" fill="black"/>
</g>
<defs>
<clipPath id="clip0_477_92">
<rect width="153" height="73" fill="white"/>
</clipPath>
</defs>
</svg>
